<?xml version="1.0" encoding="UTF-8" standalone="no"?><svg xmlns="http://www.w3.org/2000/svg" xmlns:xlink="http://www.w3.org/1999/xlink" contentStyleType="text/css" height="447px" preserveAspectRatio="none" style="width:578px;height:447px;background:#FFFFFF;" version="1.1" viewBox="0 0 578 447" width="578px" zoomAndPan="magnify"><defs/><g><rect fill="#FFFFFF" height="148.5527" style="stroke:#181818;stroke-width:1.0;" width="10" x="343.5" y="245.6621"/><rect fill="#FFFFFF" height="29.3105" style="stroke:#181818;stroke-width:1.0;" width="10" x="478.5" y="67.7988"/><rect fill="#FFFFFF" height="29.3105" style="stroke:#181818;stroke-width:1.0;" width="10" x="478.5" y="126.4199"/><rect fill="#FFFFFF" height="29.3105" style="stroke:#181818;stroke-width:1.0;" width="10" x="478.5" y="335.5938"/><line style="stroke:#181818;stroke-width:0.5;stroke-dasharray:5.0,5.0;" x1="152" x2="152" y1="36.4883" y2="412.2148"/><line style="stroke:#181818;stroke-width:0.5;stroke-dasharray:5.0,5.0;" x1="348" x2="348" y1="36.4883" y2="412.2148"/><line style="stroke:#181818;stroke-width:0.5;stroke-dasharray:5.0,5.0;" x1="483" x2="483" y1="36.4883" y2="412.2148"/><rect fill="#E2E2F0" height="30.4883" rx="2.5" ry="2.5" style="stroke:#181818;stroke-width:0.5;" width="85" x="110" y="5"/><text fill="#000000" font-family="sans-serif" font-size="14" lengthAdjust="spacing" textLength="71" x="117" y="25.5352">Consumer</text><rect fill="#E2E2F0" height="30.4883" rx="2.5" ry="2.5" style="stroke:#181818;stroke-width:0.5;" width="85" x="110" y="411.2148"/><text fill="#000000" font-family="sans-serif" font-size="14" lengthAdjust="spacing" textLength="71" x="117" y="431.75">Consumer</text><rect fill="#E2E2F0" height="30.4883" rx="2.5" ry="2.5" style="stroke:#181818;stroke-width:0.5;" width="71" x="313" y="5"/><text fill="#000000" font-family="sans-serif" font-size="14" lengthAdjust="spacing" textLength="57" x="320" y="25.5352">Provider</text><rect fill="#E2E2F0" height="30.4883" rx="2.5" ry="2.5" style="stroke:#181818;stroke-width:0.5;" width="71" x="313" y="411.2148"/><text fill="#000000" font-family="sans-serif" font-size="14" lengthAdjust="spacing" textLength="57" x="320" y="431.75">Provider</text><rect fill="#E2E2F0" height="30.4883" rx="2.5" ry="2.5" style="stroke:#181818;stroke-width:0.5;" width="177" x="395" y="5"/><text fill="#000000" font-family="sans-serif" font-size="14" lengthAdjust="spacing" textLength="163" x="402" y="25.5352">Managed Identity Wallet</text><rect fill="#E2E2F0" height="30.4883" rx="2.5" ry="2.5" style="stroke:#181818;stroke-width:0.5;" width="177" x="395" y="411.2148"/><text fill="#000000" font-family="sans-serif" font-size="14" lengthAdjust="spacing" textLength="163" x="402" y="431.75">Managed Identity Wallet</text><rect fill="#FFFFFF" height="148.5527" style="stroke:#181818;stroke-width:1.0;" width="10" x="343.5" y="245.6621"/><rect fill="#FFFFFF" height="29.3105" style="stroke:#181818;stroke-width:1.0;" width="10" x="478.5" y="67.7988"/><rect fill="#FFFFFF" height="29.3105" style="stroke:#181818;stroke-width:1.0;" width="10" x="478.5" y="126.4199"/><rect fill="#FFFFFF" height="29.3105" style="stroke:#181818;stroke-width:1.0;" width="10" x="478.5" y="335.5938"/><polygon fill="#181818" points="466.5,63.7988,476.5,67.7988,466.5,71.7988,470.5,67.7988" style="stroke:#181818;stroke-width:1.0;"/><line style="stroke:#181818;stroke-width:1.0;" x1="152.5" x2="472.5" y1="67.7988" y2="67.7988"/><text fill="#000000" font-family="sans-serif" font-size="13" font-weight="bold" lengthAdjust="spacing" textLength="9" x="159.5" y="63.0566">1</text><text fill="#000000" font-family="sans-serif" font-size="13" lengthAdjust="spacing" textLength="68" x="172.5" y="63.0566">request VC</text><polygon fill="#181818" points="163.5,93.1094,153.5,97.1094,163.5,101.1094,159.5,97.1094" style="stroke:#181818;stroke-width:1.0;"/><line style="stroke:#181818;stroke-width:1.0;stroke-dasharray:2.0,2.0;" x1="157.5" x2="482.5" y1="97.1094" y2="97.1094"/><text fill="#000000" font-family="sans-serif" font-size="13" font-weight="bold" lengthAdjust="spacing" textLength="9" x="169.5" y="92.3672">2</text><text fill="#000000" font-family="sans-serif" font-size="13" lengthAdjust="spacing" textLength="17" x="182.5" y="92.3672">VC</text><polygon fill="#181818" points="466.5,122.4199,476.5,126.4199,466.5,130.4199,470.5,126.4199" style="stroke:#181818;stroke-width:1.0;"/><line style="stroke:#181818;stroke-width:1.0;" x1="152.5" x2="472.5" y1="126.4199" y2="126.4199"/><text fill="#000000" font-family="sans-serif" font-size="13" font-weight="bold" lengthAdjust="spacing" textLength="9" x="159.5" y="121.6777">3</text><text fill="#000000" font-family="sans-serif" font-size="13" lengthAdjust="spacing" textLength="132" x="172.5" y="121.6777">send VC, generate VP</text><polygon fill="#181818" points="163.5,151.7305,153.5,155.7305,163.5,159.7305,159.5,155.7305" style="stroke:#181818;stroke-width:1.0;"/><line style="stroke:#181818;stroke-width:1.0;stroke-dasharray:2.0,2.0;" x1="157.5" x2="482.5" y1="155.7305" y2="155.7305"/><text fill="#000000" font-family="sans-serif" font-size="13" font-weight="bold" lengthAdjust="spacing" textLength="9" x="169.5" y="150.9883">4</text><text fill="#000000" font-family="sans-serif" font-size="13" lengthAdjust="spacing" textLength="15" x="182.5" y="150.9883">VP</text><line style="stroke:#181818;stroke-width:1.0;" x1="152.5" x2="194.5" y1="185.041" y2="185.041"/><line style="stroke:#181818;stroke-width:1.0;" x1="194.5" x2="194.5" y1="185.041" y2="198.041"/><line style="stroke:#181818;stroke-width:1.0;" x1="153.5" x2="194.5" y1="198.041" y2="198.041"/><polygon fill="#181818" points="163.5,194.041,153.5,198.041,163.5,202.041,159.5,198.041" style="stroke:#181818;stroke-width:1.0;"/><text fill="#000000" font-family="sans-serif" font-size="13" font-weight="bold" lengthAdjust="spacing" textLength="9" x="159.5" y="180.2988">5</text><text fill="#000000" font-family="sans-serif" font-size="13" lengthAdjust="spacing" textLength="123" x="172.5" y="180.2988">create and sign JWT</text><line style="stroke:#0000FF;stroke-width:1.0;" x1="341.5" x2="331.5" y1="245.6621" y2="241.6621"/><line style="stroke:#0000FF;stroke-width:1.0;" x1="341.5" x2="331.5" y1="245.6621" y2="249.6621"/><line style="stroke:#0000FF;stroke-width:1.0;" x1="152.5" x2="342.5" y1="245.6621" y2="245.6621"/><text fill="#000000" font-family="sans-serif" font-size="13" font-weight="bold" lengthAdjust="spacing" textLength="9" x="159.5" y="240.9199">6</text><text fill="#000000" font-family="sans-serif" font-size="13" lengthAdjust="spacing" textLength="75" x="172.5" y="240.9199">DSP request</text><path d="M5,211.041 L5,266.041 L148,266.041 L148,221.041 L138,211.041 L5,211.041 " fill="#FEFFDD" style="stroke:#181818;stroke-width:0.5;"/><path d="M138,211.041 L138,221.041 L148,221.041 L138,211.041 " fill="#FEFFDD" style="stroke:#181818;stroke-width:0.5;"/><text fill="#000000" font-family="sans-serif" font-size="13" lengthAdjust="spacing" textLength="112" x="11" y="228.6094">contains JWT with</text><text fill="#000000" font-family="sans-serif" font-size="13" lengthAdjust="spacing" textLength="122" x="11" y="243.9199">SummaryCredential</text><text fill="#000000" font-family="sans-serif" font-size="13" lengthAdjust="spacing" textLength="95" x="11" y="259.2305">as VP in header</text><line style="stroke:#181818;stroke-width:1.0;" x1="353.5" x2="395.5" y1="293.2832" y2="293.2832"/><line style="stroke:#181818;stroke-width:1.0;" x1="395.5" x2="395.5" y1="293.2832" y2="306.2832"/><line style="stroke:#181818;stroke-width:1.0;" x1="354.5" x2="395.5" y1="306.2832" y2="306.2832"/><polygon fill="#181818" points="364.5,302.2832,354.5,306.2832,364.5,310.2832,360.5,306.2832" style="stroke:#181818;stroke-width:1.0;"/><text fill="#000000" font-family="sans-serif" font-size="13" font-weight="bold" lengthAdjust="spacing" textLength="9" x="360.5" y="288.541">7</text><text fill="#000000" font-family="sans-serif" font-size="13" lengthAdjust="spacing" textLength="98" x="373.5" y="288.541">extract JWT (VP)</text><path d="M143,280.4727 L143,305.4727 L338,305.4727 L338,290.4727 L328,280.4727 L143,280.4727 " fill="#FEFFDD" style="stroke:#181818;stroke-width:0.5;"/><path d="M328,280.4727 L328,290.4727 L338,290.4727 L328,280.4727 " fill="#FEFFDD" style="stroke:#181818;stroke-width:0.5;"/><text fill="#000000" font-family="sans-serif" font-size="13" lengthAdjust="spacing" textLength="174" x="149" y="298.041">validate JWT before sending</text><polygon fill="#181818" points="466.5,331.5938,476.5,335.5938,466.5,339.5938,470.5,335.5938" style="stroke:#181818;stroke-width:1.0;"/><line style="stroke:#181818;stroke-width:1.0;" x1="353.5" x2="472.5" y1="335.5938" y2="335.5938"/><text fill="#000000" font-family="sans-serif" font-size="13" font-weight="bold" lengthAdjust="spacing" textLength="9" x="360.5" y="330.8516">8</text><text fill="#000000" font-family="sans-serif" font-size="13" lengthAdjust="spacing" textLength="68" x="373.5" y="330.8516">validate VP</text><polygon fill="#181818" points="364.5,360.9043,354.5,364.9043,364.5,368.9043,360.5,364.9043" style="stroke:#181818;stroke-width:1.0;"/><line style="stroke:#181818;stroke-width:1.0;stroke-dasharray:2.0,2.0;" x1="358.5" x2="482.5" y1="364.9043" y2="364.9043"/><text fill="#000000" font-family="sans-serif" font-size="13" font-weight="bold" lengthAdjust="spacing" textLength="9" x="370.5" y="360.1621">9</text><text fill="#000000" font-family="sans-serif" font-size="13" lengthAdjust="spacing" textLength="36" x="383.5" y="360.1621">result</text><line style="stroke:#0000FF;stroke-width:1.0;" x1="153.5" x2="163.5" y1="394.2148" y2="390.2148"/><line style="stroke:#0000FF;stroke-width:1.0;" x1="153.5" x2="163.5" y1="394.2148" y2="398.2148"/><line style="stroke:#0000FF;stroke-width:1.0;stroke-dasharray:2.0,2.0;" x1="152.5" x2="347.5" y1="394.2148" y2="394.2148"/><text fill="#000000" font-family="sans-serif" font-size="13" font-weight="bold" lengthAdjust="spacing" textLength="18" x="169.5" y="389.4727">10</text><text fill="#000000" font-family="sans-serif" font-size="13" lengthAdjust="spacing" textLength="145" x="191.5" y="389.4727">DSP result (4xx or 2xx)</text><!--MD5=[eb5fc93e7b83b43e2bdab891664de36b]
@startuml
participant Consumer as cons
participant Provider as prov
participant "Managed Identity Wallet" as miw

autonumber

cons -> miw++: request VC
return VC
cons -> miw++: send VC, generate VP
return VP

cons -> cons : create and sign JWT

cons -[#blue]>> prov ++: DSP request
note left: contains JWT with\nSummaryCredential\nas VP in header

prov -> prov: extract JWT (VP) 
note left: validate JWT before sending
prov -> miw ++ : validate VP
return result

return DSP result (4xx or 2xx)

@enduml

PlantUML version 1.2022.7(Mon Aug 22 19:01:30 CEST 2022)
(GPL source distribution)
Java Runtime: OpenJDK Runtime Environment
JVM: OpenJDK 64-Bit Server VM
Default Encoding: UTF-8
Language: en
Country: AT
--></g></svg>