<?xml version="1.0" encoding="us-ascii" standalone="no"?><svg xmlns="http://www.w3.org/2000/svg" xmlns:xlink="http://www.w3.org/1999/xlink" contentStyleType="text/css" height="403px" preserveAspectRatio="none" style="width:593px;height:403px;background:#FFFFFF;" version="1.1" viewBox="0 0 593 403" width="593px" zoomAndPan="magnify"><defs/><g><rect fill="#FFFFFF" height="147.6641" style="stroke:#181818;stroke-width:1.0;" width="10" x="345" y="202.0938"/><rect fill="#FFFFFF" height="29.1328" style="stroke:#181818;stroke-width:1.0;" width="10" x="488" y="67.4297"/><rect fill="#FFFFFF" height="29.1328" style="stroke:#181818;stroke-width:1.0;" width="10" x="488" y="125.6953"/><rect fill="#FFFFFF" height="29.1328" style="stroke:#181818;stroke-width:1.0;" width="10" x="488" y="291.4922"/><line style="stroke:#181818;stroke-width:0.5;stroke-dasharray:5.0,5.0;" x1="159" x2="159" y1="36.2969" y2="367.7578"/><line style="stroke:#181818;stroke-width:0.5;stroke-dasharray:5.0,5.0;" x1="350" x2="350" y1="36.2969" y2="367.7578"/><line style="stroke:#181818;stroke-width:0.5;stroke-dasharray:5.0,5.0;" x1="492.5" x2="492.5" y1="36.2969" y2="367.7578"/><rect fill="#E2E2F0" height="30.2969" rx="2.5" ry="2.5" style="stroke:#181818;stroke-width:0.5;" width="86" x="116" y="5"/><text fill="#000000" font-family="sans-serif" font-size="14" lengthAdjust="spacing" textLength="72" x="123" y="24.9951">Consumer</text><rect fill="#E2E2F0" height="30.2969" rx="2.5" ry="2.5" style="stroke:#181818;stroke-width:0.5;" width="86" x="116" y="366.7578"/><text fill="#000000" font-family="sans-serif" font-size="14" lengthAdjust="spacing" textLength="72" x="123" y="386.7529">Consumer</text><rect fill="#E2E2F0" height="30.2969" rx="2.5" ry="2.5" style="stroke:#181818;stroke-width:0.5;" width="74" x="313" y="5"/><text fill="#000000" font-family="sans-serif" font-size="14" lengthAdjust="spacing" textLength="60" x="320" y="24.9951">Provider</text><rect fill="#E2E2F0" height="30.2969" rx="2.5" ry="2.5" style="stroke:#181818;stroke-width:0.5;" width="74" x="313" y="366.7578"/><text fill="#000000" font-family="sans-serif" font-size="14" lengthAdjust="spacing" textLength="60" x="320" y="386.7529">Provider</text><rect fill="#E2E2F0" height="30.2969" rx="2.5" ry="2.5" style="stroke:#181818;stroke-width:0.5;" width="189" x="398.5" y="5"/><text fill="#000000" font-family="sans-serif" font-size="14" lengthAdjust="spacing" textLength="175" x="405.5" y="24.9951">Managed Identity Wallet</text><rect fill="#E2E2F0" height="30.2969" rx="2.5" ry="2.5" style="stroke:#181818;stroke-width:0.5;" width="189" x="398.5" y="366.7578"/><text fill="#000000" font-family="sans-serif" font-size="14" lengthAdjust="spacing" textLength="175" x="405.5" y="386.7529">Managed Identity Wallet</text><rect fill="#FFFFFF" height="147.6641" style="stroke:#181818;stroke-width:1.0;" width="10" x="345" y="202.0938"/><rect fill="#FFFFFF" height="29.1328" style="stroke:#181818;stroke-width:1.0;" width="10" x="488" y="67.4297"/><rect fill="#FFFFFF" height="29.1328" style="stroke:#181818;stroke-width:1.0;" width="10" x="488" y="125.6953"/><rect fill="#FFFFFF" height="29.1328" style="stroke:#181818;stroke-width:1.0;" width="10" x="488" y="291.4922"/><polygon fill="#181818" points="476,63.4297,486,67.4297,476,71.4297,480,67.4297" style="stroke:#181818;stroke-width:1.0;"/><line style="stroke:#181818;stroke-width:1.0;" x1="159" x2="482" y1="67.4297" y2="67.4297"/><text fill="#000000" font-family="sans-serif" font-size="13" font-weight="bold" lengthAdjust="spacing" textLength="9" x="166" y="62.3638">1</text><text fill="#000000" font-family="sans-serif" font-size="13" lengthAdjust="spacing" textLength="71" x="179" y="62.3638">request VC</text><polygon fill="#181818" points="170,92.5625,160,96.5625,170,100.5625,166,96.5625" style="stroke:#181818;stroke-width:1.0;"/><line style="stroke:#181818;stroke-width:1.0;stroke-dasharray:2.0,2.0;" x1="164" x2="492" y1="96.5625" y2="96.5625"/><text fill="#000000" font-family="sans-serif" font-size="13" font-weight="bold" lengthAdjust="spacing" textLength="9" x="176" y="91.4966">2</text><text fill="#000000" font-family="sans-serif" font-size="13" lengthAdjust="spacing" textLength="18" x="189" y="91.4966">VC</text><polygon fill="#181818" points="476,121.6953,486,125.6953,476,129.6953,480,125.6953" style="stroke:#181818;stroke-width:1.0;"/><line style="stroke:#181818;stroke-width:1.0;" x1="159" x2="482" y1="125.6953" y2="125.6953"/><text fill="#000000" font-family="sans-serif" font-size="13" font-weight="bold" lengthAdjust="spacing" textLength="8" x="166" y="120.6294">3</text><text fill="#000000" font-family="sans-serif" font-size="13" lengthAdjust="spacing" textLength="140" x="178" y="120.6294">send VC, generate VP</text><polygon fill="#181818" points="170,150.8281,160,154.8281,170,158.8281,166,154.8281" style="stroke:#181818;stroke-width:1.0;"/><line style="stroke:#181818;stroke-width:1.0;stroke-dasharray:2.0,2.0;" x1="164" x2="492" y1="154.8281" y2="154.8281"/><text fill="#000000" font-family="sans-serif" font-size="13" font-weight="bold" lengthAdjust="spacing" textLength="9" x="176" y="149.7622">4</text><text fill="#000000" font-family="sans-serif" font-size="13" lengthAdjust="spacing" textLength="104" x="189" y="149.7622">VP (JWT format)</text><line style="stroke:#0000FF;stroke-width:1.0;" x1="343" x2="333" y1="202.0938" y2="198.0938"/><line style="stroke:#0000FF;stroke-width:1.0;" x1="343" x2="333" y1="202.0938" y2="206.0938"/><line style="stroke:#0000FF;stroke-width:1.0;" x1="159" x2="344" y1="202.0938" y2="202.0938"/><text fill="#000000" font-family="sans-serif" font-size="13" font-weight="bold" lengthAdjust="spacing" textLength="9" x="166" y="197.0278">5</text><text fill="#000000" font-family="sans-serif" font-size="13" lengthAdjust="spacing" textLength="79" x="179" y="197.0278">DSP request</text><path d="M5,167.8281 L5,222.8281 L154,222.8281 L154,177.8281 L144,167.8281 L5,167.8281 " fill="#FEFFDD" style="stroke:#181818;stroke-width:0.5;"/><path d="M144,167.8281 L144,177.8281 L154,177.8281 L144,167.8281 " fill="#FEFFDD" style="stroke:#181818;stroke-width:0.5;"/><text fill="#000000" font-family="sans-serif" font-size="13" lengthAdjust="spacing" textLength="114" x="11" y="184.895">contains JWT with</text><text fill="#000000" font-family="sans-serif" font-size="13" lengthAdjust="spacing" textLength="128" x="11" y="200.0278">SummaryCredential</text><text fill="#000000" font-family="sans-serif" font-size="13" lengthAdjust="spacing" textLength="100" x="11" y="215.1606">as VP in header</text><line style="stroke:#181818;stroke-width:1.0;" x1="355" x2="397" y1="249.3594" y2="249.3594"/><line style="stroke:#181818;stroke-width:1.0;" x1="397" x2="397" y1="249.3594" y2="262.3594"/><line style="stroke:#181818;stroke-width:1.0;" x1="356" x2="397" y1="262.3594" y2="262.3594"/><polygon fill="#181818" points="366,258.3594,356,262.3594,366,266.3594,362,262.3594" style="stroke:#181818;stroke-width:1.0;"/><text fill="#000000" font-family="sans-serif" font-size="13" font-weight="bold" lengthAdjust="spacing" textLength="9" x="362" y="244.2935">6</text><text fill="#000000" font-family="sans-serif" font-size="13" lengthAdjust="spacing" textLength="106" x="375" y="244.2935">extract JWT (VP)</text><path d="M139,236.7266 L139,261.7266 L340,261.7266 L340,246.7266 L330,236.7266 L139,236.7266 " fill="#FEFFDD" style="stroke:#181818;stroke-width:0.5;"/><path d="M330,236.7266 L330,246.7266 L340,246.7266 L330,236.7266 " fill="#FEFFDD" style="stroke:#181818;stroke-width:0.5;"/><text fill="#000000" font-family="sans-serif" font-size="13" lengthAdjust="spacing" textLength="180" x="145" y="253.7935">validate JWT before sending</text><polygon fill="#181818" points="476,287.4922,486,291.4922,476,295.4922,480,291.4922" style="stroke:#181818;stroke-width:1.0;"/><line style="stroke:#181818;stroke-width:1.0;" x1="355" x2="482" y1="291.4922" y2="291.4922"/><text fill="#000000" font-family="sans-serif" font-size="13" font-weight="bold" lengthAdjust="spacing" textLength="9" x="362" y="286.4263">7</text><text fill="#000000" font-family="sans-serif" font-size="13" lengthAdjust="spacing" textLength="72" x="375" y="286.4263">validate VP</text><polygon fill="#181818" points="366,316.625,356,320.625,366,324.625,362,320.625" style="stroke:#181818;stroke-width:1.0;"/><line style="stroke:#181818;stroke-width:1.0;stroke-dasharray:2.0,2.0;" x1="360" x2="492" y1="320.625" y2="320.625"/><text fill="#000000" font-family="sans-serif" font-size="13" font-weight="bold" lengthAdjust="spacing" textLength="9" x="372" y="315.5591">8</text><text fill="#000000" font-family="sans-serif" font-size="13" lengthAdjust="spacing" textLength="36" x="385" y="315.5591">result</text><line style="stroke:#0000FF;stroke-width:1.0;" x1="160" x2="170" y1="349.7578" y2="345.7578"/><line style="stroke:#0000FF;stroke-width:1.0;" x1="160" x2="170" y1="349.7578" y2="353.7578"/><line style="stroke:#0000FF;stroke-width:1.0;stroke-dasharray:2.0,2.0;" x1="159" x2="349" y1="349.7578" y2="349.7578"/><text fill="#000000" font-family="sans-serif" font-size="13" font-weight="bold" lengthAdjust="spacing" textLength="9" x="176" y="344.6919">9</text><text fill="#000000" font-family="sans-serif" font-size="13" lengthAdjust="spacing" textLength="149" x="189" y="344.6919">DSP result (4xx or 2xx)</text><!--SRC=[NOynRy8m48Lt_ueJNO8eIzM9WOKkhLGf4XKCfSD1Zc39FgUNCuH_NpiHDErsllVytNiDYjg3RP0LLe7Rw4a0MpYasJGZiPHmjjKWDcd-8qxUaR6c2buhOhLwXIqwHph9Rcylnc3KmD7lIOp9R9Wlip2RBK3eErAhi5aP8Ot2UVhdQOchj7w4cfW4bM1Jtjqb56_R3pW6yQZJ6__pOUyYVIsNVLp8b9TrURjcE2I8ewCkSbT5c_vaoiNgQSVhw3tATINK5qAtuzGaNR8C9y8gr-Ynym6_0EfKyA0zezYKKnXVEAEpLKwTrJsbfDHNibpVCQbf2WaZysz5eJOwDRVdq2Ele7ZkEWW2Jrqt_G40]--></g></svg>