<?xml version="1.0" encoding="UTF-8" standalone="no"?><svg xmlns="http://www.w3.org/2000/svg" xmlns:xlink="http://www.w3.org/1999/xlink" contentStyleType="text/css" height="389px" preserveAspectRatio="none" style="width:569px;height:389px;background:#FFFFFF;" version="1.1" viewBox="0 0 569 389" width="569px" zoomAndPan="magnify"><defs/><g><rect fill="#FFFFFF" height="148.5527" style="stroke:#181818;stroke-width:1.0;" width="10" x="334.5" y="187.041"/><rect fill="#FFFFFF" height="29.3105" style="stroke:#181818;stroke-width:1.0;" width="10" x="469.5" y="67.7988"/><rect fill="#FFFFFF" height="29.3105" style="stroke:#181818;stroke-width:1.0;" width="10" x="469.5" y="276.9727"/><line style="stroke:#181818;stroke-width:0.5;stroke-dasharray:5.0,5.0;" x1="152" x2="152" y1="36.4883" y2="353.5938"/><line style="stroke:#181818;stroke-width:0.5;stroke-dasharray:5.0,5.0;" x1="339" x2="339" y1="36.4883" y2="353.5938"/><line style="stroke:#181818;stroke-width:0.5;stroke-dasharray:5.0,5.0;" x1="474" x2="474" y1="36.4883" y2="353.5938"/><rect fill="#E2E2F0" height="30.4883" rx="2.5" ry="2.5" style="stroke:#181818;stroke-width:0.5;" width="85" x="110" y="5"/><text fill="#000000" font-family="sans-serif" font-size="14" lengthAdjust="spacing" textLength="71" x="117" y="25.5352">Consumer</text><rect fill="#E2E2F0" height="30.4883" rx="2.5" ry="2.5" style="stroke:#181818;stroke-width:0.5;" width="85" x="110" y="352.5938"/><text fill="#000000" font-family="sans-serif" font-size="14" lengthAdjust="spacing" textLength="71" x="117" y="373.1289">Consumer</text><rect fill="#E2E2F0" height="30.4883" rx="2.5" ry="2.5" style="stroke:#181818;stroke-width:0.5;" width="71" x="304" y="5"/><text fill="#000000" font-family="sans-serif" font-size="14" lengthAdjust="spacing" textLength="57" x="311" y="25.5352">Provider</text><rect fill="#E2E2F0" height="30.4883" rx="2.5" ry="2.5" style="stroke:#181818;stroke-width:0.5;" width="71" x="304" y="352.5938"/><text fill="#000000" font-family="sans-serif" font-size="14" lengthAdjust="spacing" textLength="57" x="311" y="373.1289">Provider</text><rect fill="#E2E2F0" height="30.4883" rx="2.5" ry="2.5" style="stroke:#181818;stroke-width:0.5;" width="177" x="386" y="5"/><text fill="#000000" font-family="sans-serif" font-size="14" lengthAdjust="spacing" textLength="163" x="393" y="25.5352">Managed Identity Wallet</text><rect fill="#E2E2F0" height="30.4883" rx="2.5" ry="2.5" style="stroke:#181818;stroke-width:0.5;" width="177" x="386" y="352.5938"/><text fill="#000000" font-family="sans-serif" font-size="14" lengthAdjust="spacing" textLength="163" x="393" y="373.1289">Managed Identity Wallet</text><rect fill="#FFFFFF" height="148.5527" style="stroke:#181818;stroke-width:1.0;" width="10" x="334.5" y="187.041"/><rect fill="#FFFFFF" height="29.3105" style="stroke:#181818;stroke-width:1.0;" width="10" x="469.5" y="67.7988"/><rect fill="#FFFFFF" height="29.3105" style="stroke:#181818;stroke-width:1.0;" width="10" x="469.5" y="276.9727"/><polygon fill="#181818" points="457.5,63.7988,467.5,67.7988,457.5,71.7988,461.5,67.7988" style="stroke:#181818;stroke-width:1.0;"/><line style="stroke:#181818;stroke-width:1.0;" x1="152.5" x2="463.5" y1="67.7988" y2="67.7988"/><text fill="#000000" font-family="sans-serif" font-size="13" font-weight="bold" lengthAdjust="spacing" textLength="9" x="159.5" y="63.0566">1</text><text fill="#000000" font-family="sans-serif" font-size="13" lengthAdjust="spacing" textLength="66" x="172.5" y="63.0566">request VP</text><polygon fill="#181818" points="163.5,93.1094,153.5,97.1094,163.5,101.1094,159.5,97.1094" style="stroke:#181818;stroke-width:1.0;"/><line style="stroke:#181818;stroke-width:1.0;stroke-dasharray:2.0,2.0;" x1="157.5" x2="473.5" y1="97.1094" y2="97.1094"/><text fill="#000000" font-family="sans-serif" font-size="13" font-weight="bold" lengthAdjust="spacing" textLength="9" x="169.5" y="92.3672">2</text><text fill="#000000" font-family="sans-serif" font-size="13" lengthAdjust="spacing" textLength="15" x="182.5" y="92.3672">VP</text><line style="stroke:#181818;stroke-width:1.0;" x1="152.5" x2="194.5" y1="126.4199" y2="126.4199"/><line style="stroke:#181818;stroke-width:1.0;" x1="194.5" x2="194.5" y1="126.4199" y2="139.4199"/><line style="stroke:#181818;stroke-width:1.0;" x1="153.5" x2="194.5" y1="139.4199" y2="139.4199"/><polygon fill="#181818" points="163.5,135.4199,153.5,139.4199,163.5,143.4199,159.5,139.4199" style="stroke:#181818;stroke-width:1.0;"/><text fill="#000000" font-family="sans-serif" font-size="13" font-weight="bold" lengthAdjust="spacing" textLength="9" x="159.5" y="121.6777">3</text><text fill="#000000" font-family="sans-serif" font-size="13" lengthAdjust="spacing" textLength="123" x="172.5" y="121.6777">create and sign JWT</text><line style="stroke:#0000FF;stroke-width:1.0;" x1="332.5" x2="322.5" y1="187.041" y2="183.041"/><line style="stroke:#0000FF;stroke-width:1.0;" x1="332.5" x2="322.5" y1="187.041" y2="191.041"/><line style="stroke:#0000FF;stroke-width:1.0;" x1="152.5" x2="333.5" y1="187.041" y2="187.041"/><text fill="#000000" font-family="sans-serif" font-size="13" font-weight="bold" lengthAdjust="spacing" textLength="9" x="159.5" y="182.2988">4</text><text fill="#000000" font-family="sans-serif" font-size="13" lengthAdjust="spacing" textLength="75" x="172.5" y="182.2988">DSP request</text><path d="M5,152.4199 L5,207.4199 L148,207.4199 L148,162.4199 L138,152.4199 L5,152.4199 " fill="#FEFFDD" style="stroke:#181818;stroke-width:0.5;"/><path d="M138,152.4199 L138,162.4199 L148,162.4199 L138,152.4199 " fill="#FEFFDD" style="stroke:#181818;stroke-width:0.5;"/><text fill="#000000" font-family="sans-serif" font-size="13" lengthAdjust="spacing" textLength="112" x="11" y="169.9883">contains JWT with</text><text fill="#000000" font-family="sans-serif" font-size="13" lengthAdjust="spacing" textLength="122" x="11" y="185.2988">SummaryCredential</text><text fill="#000000" font-family="sans-serif" font-size="13" lengthAdjust="spacing" textLength="95" x="11" y="200.6094">as VP in header</text><line style="stroke:#181818;stroke-width:1.0;" x1="344.5" x2="386.5" y1="234.6621" y2="234.6621"/><line style="stroke:#181818;stroke-width:1.0;" x1="386.5" x2="386.5" y1="234.6621" y2="247.6621"/><line style="stroke:#181818;stroke-width:1.0;" x1="345.5" x2="386.5" y1="247.6621" y2="247.6621"/><polygon fill="#181818" points="355.5,243.6621,345.5,247.6621,355.5,251.6621,351.5,247.6621" style="stroke:#181818;stroke-width:1.0;"/><text fill="#000000" font-family="sans-serif" font-size="13" font-weight="bold" lengthAdjust="spacing" textLength="9" x="351.5" y="229.9199">5</text><text fill="#000000" font-family="sans-serif" font-size="13" lengthAdjust="spacing" textLength="98" x="364.5" y="229.9199">extract JWT (VP)</text><path d="M134,221.8516 L134,246.8516 L329,246.8516 L329,231.8516 L319,221.8516 L134,221.8516 " fill="#FEFFDD" style="stroke:#181818;stroke-width:0.5;"/><path d="M319,221.8516 L319,231.8516 L329,231.8516 L319,221.8516 " fill="#FEFFDD" style="stroke:#181818;stroke-width:0.5;"/><text fill="#000000" font-family="sans-serif" font-size="13" lengthAdjust="spacing" textLength="174" x="140" y="239.4199">validate JWT before sending</text><polygon fill="#181818" points="457.5,272.9727,467.5,276.9727,457.5,280.9727,461.5,276.9727" style="stroke:#181818;stroke-width:1.0;"/><line style="stroke:#181818;stroke-width:1.0;" x1="344.5" x2="463.5" y1="276.9727" y2="276.9727"/><text fill="#000000" font-family="sans-serif" font-size="13" font-weight="bold" lengthAdjust="spacing" textLength="9" x="351.5" y="272.2305">6</text><text fill="#000000" font-family="sans-serif" font-size="13" lengthAdjust="spacing" textLength="68" x="364.5" y="272.2305">validate VP</text><polygon fill="#181818" points="355.5,302.2832,345.5,306.2832,355.5,310.2832,351.5,306.2832" style="stroke:#181818;stroke-width:1.0;"/><line style="stroke:#181818;stroke-width:1.0;stroke-dasharray:2.0,2.0;" x1="349.5" x2="473.5" y1="306.2832" y2="306.2832"/><text fill="#000000" font-family="sans-serif" font-size="13" font-weight="bold" lengthAdjust="spacing" textLength="9" x="361.5" y="301.541">7</text><text fill="#000000" font-family="sans-serif" font-size="13" lengthAdjust="spacing" textLength="36" x="374.5" y="301.541">result</text><line style="stroke:#0000FF;stroke-width:1.0;" x1="153.5" x2="163.5" y1="335.5938" y2="331.5938"/><line style="stroke:#0000FF;stroke-width:1.0;" x1="153.5" x2="163.5" y1="335.5938" y2="339.5938"/><line style="stroke:#0000FF;stroke-width:1.0;stroke-dasharray:2.0,2.0;" x1="152.5" x2="338.5" y1="335.5938" y2="335.5938"/><text fill="#000000" font-family="sans-serif" font-size="13" font-weight="bold" lengthAdjust="spacing" textLength="9" x="169.5" y="330.8516">8</text><text fill="#000000" font-family="sans-serif" font-size="13" lengthAdjust="spacing" textLength="145" x="182.5" y="330.8516">DSP result (4xx or 2xx)</text><!--MD5=[7c04b83ac334935e53d979d03aef6275]
@startuml
participant Consumer as cons
participant Provider as prov
participant "Managed Identity Wallet" as miw

autonumber

cons -> miw++: request VP
return VP

cons -> cons : create and sign JWT

cons -[#blue]>> prov ++: DSP request
note left: contains JWT with\nSummaryCredential\nas VP in header

prov -> prov: extract JWT (VP) 
note left: validate JWT before sending
prov -> miw ++ : validate VP
return result

return DSP result (4xx or 2xx)

@enduml

PlantUML version 1.2022.7(Mon Aug 22 19:01:30 CEST 2022)
(GPL source distribution)
Java Runtime: OpenJDK Runtime Environment
JVM: OpenJDK 64-Bit Server VM
Default Encoding: UTF-8
Language: en
Country: AT
--></g></svg>